<mxfile host="app.diagrams.net" modified="2022-08-10T05:10:21.217Z" agent="5.0 (Windows NT 10.0; Win64; x64) AppleWebKit/537.36 (KHTML, like Gecko) Chrome/104.0.5112.81 Safari/537.36 Edg/104.0.1293.47" etag="U3D1_X-dcF8wMLAT0EN4" version="20.2.3" type="github">
  <diagram id="98dI7QOUpAn8m7V0Bijq" name="第 1 页">
    <mxGraphModel dx="864" dy="535" grid="1" gridSize="10" guides="1" tooltips="1" connect="1" arrows="1" fold="1" page="1" pageScale="1" pageWidth="1200" pageHeight="1920" math="0" shadow="0">
      <root>
        <mxCell id="0" />
        <mxCell id="1" parent="0" />
        <mxCell id="MqpAd7KmgEAV98KqG5_A-1" value="RMM" style="rounded=0;whiteSpace=wrap;html=1;fillColor=#FFFF00;strokeColor=#d6b656;gradientColor=none;" parent="1" vertex="1">
          <mxGeometry x="480" y="530" width="180" height="60" as="geometry" />
        </mxCell>
        <mxCell id="3dAunr9FUed9OEYbS_AE-15" style="edgeStyle=orthogonalEdgeStyle;rounded=0;orthogonalLoop=1;jettySize=auto;html=1;exitX=0;exitY=0.25;exitDx=0;exitDy=0;entryX=1;entryY=0.5;entryDx=0;entryDy=0;fontSize=14;endArrow=classic;endFill=1;strokeColor=#FF0000;strokeWidth=2;" edge="1" parent="1" source="MqpAd7KmgEAV98KqG5_A-6" target="MqpAd7KmgEAV98KqG5_A-14">
          <mxGeometry relative="1" as="geometry" />
        </mxCell>
        <mxCell id="3dAunr9FUed9OEYbS_AE-17" style="edgeStyle=orthogonalEdgeStyle;rounded=0;orthogonalLoop=1;jettySize=auto;html=1;exitX=0.5;exitY=0;exitDx=0;exitDy=0;entryX=0.5;entryY=0;entryDx=0;entryDy=0;fontSize=14;endArrow=classic;endFill=1;strokeColor=#FF0000;strokeWidth=2;" edge="1" parent="1" source="MqpAd7KmgEAV98KqG5_A-6" target="3dAunr9FUed9OEYbS_AE-1">
          <mxGeometry relative="1" as="geometry">
            <Array as="points">
              <mxPoint x="520" y="360" />
              <mxPoint x="620" y="360" />
            </Array>
          </mxGeometry>
        </mxCell>
        <mxCell id="3dAunr9FUed9OEYbS_AE-18" style="edgeStyle=orthogonalEdgeStyle;rounded=0;orthogonalLoop=1;jettySize=auto;html=1;exitX=0.5;exitY=1;exitDx=0;exitDy=0;entryX=0.5;entryY=0;entryDx=0;entryDy=0;fontSize=14;endArrow=classic;endFill=1;strokeColor=#FF0000;strokeWidth=2;" edge="1" parent="1" source="MqpAd7KmgEAV98KqG5_A-6" target="MqpAd7KmgEAV98KqG5_A-1">
          <mxGeometry relative="1" as="geometry" />
        </mxCell>
        <mxCell id="3dAunr9FUed9OEYbS_AE-20" style="edgeStyle=orthogonalEdgeStyle;rounded=0;orthogonalLoop=1;jettySize=auto;html=1;exitX=0.25;exitY=1;exitDx=0;exitDy=0;entryX=0;entryY=0.5;entryDx=0;entryDy=0;fontSize=14;endArrow=classic;endFill=1;strokeColor=#FF0000;strokeWidth=2;" edge="1" parent="1" source="MqpAd7KmgEAV98KqG5_A-6" target="MqpAd7KmgEAV98KqG5_A-10">
          <mxGeometry relative="1" as="geometry">
            <Array as="points">
              <mxPoint x="500" y="510" />
              <mxPoint x="450" y="510" />
              <mxPoint x="450" y="650" />
            </Array>
          </mxGeometry>
        </mxCell>
        <mxCell id="MqpAd7KmgEAV98KqG5_A-6" value="Realm" style="whiteSpace=wrap;html=1;aspect=fixed;fillColor=#f8cecc;strokeColor=#b85450;" parent="1" vertex="1">
          <mxGeometry x="480" y="410" width="80" height="80" as="geometry" />
        </mxCell>
        <mxCell id="3dAunr9FUed9OEYbS_AE-7" style="edgeStyle=orthogonalEdgeStyle;rounded=0;orthogonalLoop=1;jettySize=auto;html=1;exitX=0;exitY=0.75;exitDx=0;exitDy=0;entryX=1;entryY=0.5;entryDx=0;entryDy=0;endArrow=none;endFill=0;" edge="1" parent="1" source="MqpAd7KmgEAV98KqG5_A-9" target="MqpAd7KmgEAV98KqG5_A-11">
          <mxGeometry relative="1" as="geometry" />
        </mxCell>
        <mxCell id="3dAunr9FUed9OEYbS_AE-10" style="edgeStyle=orthogonalEdgeStyle;rounded=0;orthogonalLoop=1;jettySize=auto;html=1;exitX=0;exitY=0.25;exitDx=0;exitDy=0;entryX=1;entryY=0.5;entryDx=0;entryDy=0;endArrow=none;endFill=0;" edge="1" parent="1" source="MqpAd7KmgEAV98KqG5_A-9" target="MqpAd7KmgEAV98KqG5_A-10">
          <mxGeometry relative="1" as="geometry" />
        </mxCell>
        <mxCell id="MqpAd7KmgEAV98KqG5_A-9" value="CPU" style="whiteSpace=wrap;html=1;aspect=fixed;" parent="1" vertex="1">
          <mxGeometry x="760" y="630" width="80" height="80" as="geometry" />
        </mxCell>
        <mxCell id="MqpAd7KmgEAV98KqG5_A-10" value="Cache" style="rounded=0;whiteSpace=wrap;html=1;" parent="1" vertex="1">
          <mxGeometry x="480" y="620" width="120" height="60" as="geometry" />
        </mxCell>
        <mxCell id="MqpAd7KmgEAV98KqG5_A-11" value="Memory" style="rounded=0;whiteSpace=wrap;html=1;" parent="1" vertex="1">
          <mxGeometry x="480" y="690" width="180" height="60" as="geometry" />
        </mxCell>
        <mxCell id="3dAunr9FUed9OEYbS_AE-14" style="edgeStyle=orthogonalEdgeStyle;rounded=0;orthogonalLoop=1;jettySize=auto;html=1;exitX=1;exitY=0.5;exitDx=0;exitDy=0;entryX=0;entryY=0.75;entryDx=0;entryDy=0;fontSize=14;endArrow=classic;endFill=1;strokeColor=#FF0000;strokeWidth=2;" edge="1" parent="1" source="MqpAd7KmgEAV98KqG5_A-12" target="MqpAd7KmgEAV98KqG5_A-6">
          <mxGeometry relative="1" as="geometry">
            <Array as="points">
              <mxPoint x="430" y="550" />
              <mxPoint x="430" y="470" />
            </Array>
          </mxGeometry>
        </mxCell>
        <mxCell id="MqpAd7KmgEAV98KqG5_A-12" value="DMA" style="rounded=0;whiteSpace=wrap;html=1;" parent="1" vertex="1">
          <mxGeometry x="280" y="530" width="120" height="60" as="geometry" />
        </mxCell>
        <mxCell id="MqpAd7KmgEAV98KqG5_A-14" value="Secure Device" style="rounded=0;whiteSpace=wrap;html=1;" parent="1" vertex="1">
          <mxGeometry x="280" y="420" width="120" height="60" as="geometry" />
        </mxCell>
        <mxCell id="3dAunr9FUed9OEYbS_AE-1" value="Realm" style="whiteSpace=wrap;html=1;aspect=fixed;fillColor=#fff2cc;strokeColor=#d6b656;" vertex="1" parent="1">
          <mxGeometry x="580" y="410" width="80" height="80" as="geometry" />
        </mxCell>
        <mxCell id="3dAunr9FUed9OEYbS_AE-19" style="edgeStyle=orthogonalEdgeStyle;rounded=0;orthogonalLoop=1;jettySize=auto;html=1;exitX=0.5;exitY=0;exitDx=0;exitDy=0;entryX=0.5;entryY=1;entryDx=0;entryDy=0;fontSize=14;endArrow=classic;endFill=1;strokeColor=#FF0000;strokeWidth=2;" edge="1" parent="1" source="3dAunr9FUed9OEYbS_AE-2" target="3dAunr9FUed9OEYbS_AE-1">
          <mxGeometry relative="1" as="geometry" />
        </mxCell>
        <mxCell id="3dAunr9FUed9OEYbS_AE-2" value="Hypervisor" style="rounded=0;whiteSpace=wrap;html=1;" vertex="1" parent="1">
          <mxGeometry x="700" y="530" width="180" height="60" as="geometry" />
        </mxCell>
        <mxCell id="3dAunr9FUed9OEYbS_AE-3" value="VM" style="whiteSpace=wrap;html=1;aspect=fixed;" vertex="1" parent="1">
          <mxGeometry x="700" y="410" width="80" height="80" as="geometry" />
        </mxCell>
        <mxCell id="3dAunr9FUed9OEYbS_AE-4" value="VM" style="whiteSpace=wrap;html=1;aspect=fixed;" vertex="1" parent="1">
          <mxGeometry x="800" y="410" width="80" height="80" as="geometry" />
        </mxCell>
        <mxCell id="3dAunr9FUed9OEYbS_AE-11" value="&lt;font style=&quot;font-size: 14px;&quot;&gt;bus&lt;/font&gt;" style="text;html=1;strokeColor=none;fillColor=none;align=center;verticalAlign=middle;whiteSpace=wrap;rounded=0;" vertex="1" parent="1">
          <mxGeometry x="700" y="652.5" width="60" height="35" as="geometry" />
        </mxCell>
        <mxCell id="3dAunr9FUed9OEYbS_AE-23" style="edgeStyle=orthogonalEdgeStyle;rounded=0;orthogonalLoop=1;jettySize=auto;html=1;exitX=0;exitY=0.5;exitDx=0;exitDy=0;fontSize=14;endArrow=classic;endFill=1;strokeColor=#FF0000;strokeWidth=2;" edge="1" parent="1" source="3dAunr9FUed9OEYbS_AE-21">
          <mxGeometry relative="1" as="geometry">
            <mxPoint x="700" y="720" as="targetPoint" />
          </mxGeometry>
        </mxCell>
        <mxCell id="3dAunr9FUed9OEYbS_AE-21" value="" style="whiteSpace=wrap;html=1;aspect=fixed;fontSize=14;" vertex="1" parent="1">
          <mxGeometry x="780" y="730" width="40" height="40" as="geometry" />
        </mxCell>
      </root>
    </mxGraphModel>
  </diagram>
</mxfile>
